<svg id="Layer_1" enable-background="new 0 0 480.008 480.008" height="512" viewBox="0 0 480.008 480.008" width="512" xmlns="http://www.w3.org/2000/svg"><g><path d="m409.633 70.301c-92.129-92.129-242.442-94.566-337.17-2.233-44.832 43.698-70.554 102.164-72.427 164.628-.133 4.417 3.34 8.104 7.756 8.236 4.404.141 8.104-3.339 8.236-7.756 3.652-121.778 102-217.171 223.898-217.171 123.514 0 224 100.486 224 224s-100.486 224-224 224c-104.199 0-196.173-73.721-218.691-175.292-.956-4.313-5.228-7.034-9.542-6.079-4.313.957-7.035 5.229-6.079 9.542 11.633 52.47 41.146 100.134 83.102 134.212 93.324 75.806 232.273 72.153 321.058-16.83 93.604-93.812 93.65-245.468-.141-339.257z"/><path d="m379.356 159.506c-4.937-8.552-13.766-14.286-25.854-17.063-5.344-11.818-21.714-12.738-28.338-1.557-10.43.801-20.889 2.757-31.085 5.323-30.75-108.118-105.459-83.622-118.45 56.65-11.848 8.378-22.781 17.125-32.525 26.021-5.615-5.793-11.115-12.078-15.929-18.634 5.155-10.103-1.616-22.168-12.82-23.167-2.708-7.991-2.795-14.739-.004-19.572 4.803-8.316 18.977-12.213 38.884-10.699 4.401.33 8.249-2.963 8.584-7.369.336-4.405-2.963-8.249-7.369-8.584-50.663-3.869-65.716 22.855-54.646 53.023-7.338 10.515.177 25.129 13.122 25.129 1.514 0-.384-1.073 6.604 7.484 3.675 4.5 7.717 9.015 12.083 13.516-20.243 20.871-45.638 55.35-31.117 80.5 7.223 12.511 22.751 19.008 44.667 19.008 13.481 0 27.664-2.451 40.634-5.716 2.36 8.325 5.036 16.07 7.993 23.097-7.533 10.826.65 25.785 13.98 25.068 24.088 31.639 64.374 28.962 86.308-48.16 28.252 7.11 70.764 11.838 85.276-13.297 14.532-25.169-10.914-59.677-31.137-80.521 20.422-21.016 45.71-55.243 31.139-80.48zm-139.429-64.5c13.995 0 28.935 20.857 38.801 55.592-12.582 3.991-25.625 9.078-38.812 15.152-13.121-6.039-26.156-11.134-38.764-15.138 9.922-34.879 24.926-55.606 38.775-55.606zm42.658 71.114c1.699 7.87 3.152 16.273 4.304 25.16-9.292-5.862-18.564-11.211-28.251-16.306 8.274-3.446 16.281-6.39 23.947-8.854zm-85.305.048c7.816 2.514 15.81 5.467 23.893 8.828-9.674 5.092-18.926 10.428-28.189 16.272 1.153-8.872 2.602-17.257 4.296-25.1zm-15.423 70.968c4.368.125 8.093-3.368 8.21-7.784.161-6.032.454-11.912.865-17.635 15.727-10.651 32.485-20.274 48.971-28.283 17.273 8.371 33.873 18.027 49.026 28.29 2.396 33.509.773 69.193-6.345 102.169-7.665-2.463-15.672-5.411-23.944-8.856 4.77-2.51 9.537-5.131 14.286-7.873 3.826-2.209 5.138-7.102 2.928-10.928-2.208-3.825-7.1-5.139-10.928-2.928-8.476 4.894-16.829 9.313-24.997 13.28-29.949-14.547-60.817-34.39-85.298-56.582 6.073-5.504 12.641-10.956 19.627-16.296-.068 1.735-.139 3.47-.186 5.216-.116 4.417 3.368 8.093 7.785 8.21zm123.746-13.42c6.979 5.336 13.541 10.782 19.608 16.281-5.915 5.361-12.463 10.805-19.606 16.268.429-10.992.429-21.556-.002-32.549zm-84.388 81.322c-8.265 3.442-16.263 6.384-23.921 8.846-1.688-7.813-3.139-16.202-4.299-25.133 9.39 5.922 18.626 11.239 28.22 16.287zm-106.863 7.468c-5.792-10.033.776-28.3 17.571-48.863 3.397-4.16 7.139-8.338 11.182-12.51 9.743 8.895 20.674 17.641 32.521 26.019 1.339 14.437 3.471 28.296 6.298 41.155-35.028 8.83-60.571 6.322-67.572-5.801zm125.575 72.5c-6.04 0-12.485-4.116-18.67-11.926 5.018-10.121-1.804-22.036-12.936-23.003-2.576-6.15-4.986-13.054-7.159-20.674 12.568-3.988 25.594-9.069 38.766-15.136 13.184 6.073 26.223 11.157 38.801 15.147-9.867 34.734-24.807 55.592-38.802 55.592zm125.574-72.5c-4.189 7.255-15.014 11.067-30.544 11.066-10.413-.001-22.946-1.723-37.001-5.264 2.834-12.891 4.95-26.729 6.283-41.186 11.828-8.374 22.76-17.145 32.48-26.019 4.054 4.181 7.804 8.369 11.21 12.539 16.795 20.564 23.364 38.831 17.572 48.864zm-28.763-83.636c-9.737-8.889-20.662-17.629-32.5-26.002-1.333-14.451-3.449-28.283-6.282-41.168 9.843-2.48 18.935-4.063 27.078-4.791 5.754 10.075 19.912 10.934 26.803 1.51 6.544 1.818 11.229 4.869 13.664 9.087 6.662 11.541-3.04 34.804-28.763 61.364z"/><path d="m314.169 56.397c-23.595-9.55-48.573-14.392-74.242-14.392-109.178 0-198 88.822-198 198s88.822 198 198 198c112.226 0 204.993-94.188 197.586-210.902-3.753-58.317-32.974-111.729-80.169-146.542-3.557-2.62-8.564-1.865-11.188 1.689-2.622 3.556-1.866 8.564 1.689 11.188 43.388 32.003 70.251 81.097 73.699 134.686 6.726 105.971-76.982 193.882-181.618 193.882-100.355 0-182-81.645-182-182s81.645-182 182-182c23.602 0 46.561 4.449 68.24 13.224 4.096 1.655 8.76-.32 10.417-4.415s-.319-8.759-4.414-10.418z"/><path d="m239.927 273.006c18.196 0 33-14.804 33-33 0-4.418-3.582-8-8-8s-8 3.582-8 8c0 9.374-7.626 17-17 17s-17-7.626-17-17 7.626-17 17-17c4.418 0 8-3.582 8-8s-3.582-8-8-8c-18.196 0-33 14.804-33 33s14.803 33 33 33z"/></g></svg>